<?xml version="1.0" standalone="no"?>
<!DOCTYPE svg PUBLIC "-//W3C//DTD SVG 20010904//EN"
 "http://www.w3.org/TR/2001/REC-SVG-20010904/DTD/svg10.dtd">
<svg version="1.0" xmlns="http://www.w3.org/2000/svg"
 width="700.000000pt" height="700.000000pt" viewBox="0 0 700.000000 700.000000"
 preserveAspectRatio="xMidYMid meet">
<metadata>
Created by potrace 1.11, written by Peter Selinger 2001-2013
</metadata>
<g transform="translate(0.000000,700.000000) scale(0.100000,-0.100000)"
fill="#000000" stroke="none">
<path d="M905 5748 c-394 -51 -720 -329 -850 -724 -14 -43 -28 -90 -30 -104
-3 -14 -9 -52 -14 -85 -6 -36 -10 -578 -10 -1360 0 -1080 3 -1313 14 -1379 59
-325 263 -599 557 -745 85 -42 130 -57 258 -88 58 -15 330 -16 2680 -17 l2615
0 97 26 c193 53 361 151 491 287 145 152 214 284 274 526 4 17 9 542 10 1167
4 1267 7 1202 -65 1348 -48 99 -168 221 -262 267 -219 107 -453 89 -651 -52
l-46 -32 -39 29 c-74 56 -175 99 -269 116 -63 11 -202 4 -261 -13 -162 -47
-317 -172 -384 -312 l-35 -72 -70 -1 c-215 -2 -798 0 -800 2 -2 2 1 26 5 53 9
53 6 283 -4 325 -3 14 -11 48 -17 75 -42 180 -139 345 -282 482 -100 96 -150
131 -269 188 -277 134 -601 134 -883 1 -139 -65 -236 -139 -342 -260 l-40 -45
-216 -3 -216 -4 -72 79 c-222 243 -555 366 -874 325z"/>
</g>
</svg>
