<svg id="Layer_1" height="512" viewBox="0 0 512 512" width="512" xmlns="http://www.w3.org/2000/svg" data-name="Layer 1"><path d="m200 160a6 6 0 0 0 -6-6h-53a6 6 0 0 0 -6 6v53a6 6 0 0 0 6 6h53a6 6 0 0 0 6-6zm-53 6h41v41h-41z"/><path d="m288 160a6 6 0 0 0 -6-6h-53a6 6 0 0 0 -6 6v53a6 6 0 0 0 6 6h53a6 6 0 0 0 6-6zm-53 6h42v41h-42z"/><path d="m377 160a6 6 0 0 0 -6-6h-53a6 6 0 0 0 -6 6v53a6 6 0 0 0 6 6h53a6 6 0 0 0 6-6zm-12 47h-41v-41h41z"/><path d="m200 236a6 6 0 0 0 -6-6h-53a6 6 0 0 0 -6 6v53a6 6 0 0 0 6 6h53a6 6 0 0 0 6-6zm-53 6h41v41h-41z"/><path d="m288 236a6 6 0 0 0 -6-6h-53a6 6 0 0 0 -6 6v53a6 6 0 0 0 6 6h53a6 6 0 0 0 6-6zm-53 6h42v41h-42z"/><path d="m377 236a6 6 0 0 0 -6-6h-53a6 6 0 0 0 -6 6v53a6 6 0 0 0 6 6h53a6 6 0 0 0 6-6zm-12 47h-41v-41h41z"/><path d="m200 312a6 6 0 0 0 -6-6h-53a6 6 0 0 0 -6 6v53a6 6 0 0 0 6 6h53a6 6 0 0 0 6-6zm-53 6h41v41h-41z"/><path d="m288 312a6 6 0 0 0 -6-6h-53a6 6 0 0 0 -6 6v53a6 6 0 0 0 6 6h53a6 6 0 0 0 6-6zm-53 6h42v41h-42z"/><path d="m377 312a6 6 0 0 0 -6-6h-53a6 6 0 0 0 -6 6v53a6 6 0 0 0 6 6h53a6 6 0 0 0 6-6zm-12 47h-41v-41h41z"/><path d="m200 388a6 6 0 0 0 -6-6h-53a6 6 0 0 0 -6 6v53a6 6 0 0 0 6 6h53a6 6 0 0 0 6-6zm-53 6h41v41h-41z"/><path d="m377 388a6 6 0 0 0 -6-6h-142a6 6 0 0 0 -6 6v53a6 6 0 0 0 6 6h142a6 6 0 0 0 6-6zm-12 47h-130v-41h130z"/><path d="m378 71a6 6 0 0 0 -6-6h-231a6 6 0 0 0 -6 6v53a6 6 0 0 0 6 6h231a6 6 0 0 0 6-6zm-231 6h218v41h-218z"/><path d="m414 70a46 46 0 0 0 -46-46h-225a46 46 0 0 0 -46 46v371a46 46 0 0 0 46 46h225a46 46 0 0 0 46-46zm-12 371a34 34 0 0 1 -34 34h-225a34 34 0 0 1 -34-34v-371a34 34 0 0 1 34-34h225a34 34 0 0 1 34 34z"/></svg>