<svg height="512" viewBox="0 0 512 512" width="512" xmlns="http://www.w3.org/2000/svg"><path d="m300.128 443.234-44.128 20.766-44.128-20.766a160 160 0 0 1 -91.872-144.771v-90.463h272v90.463a160 160 0 0 1 -91.872 144.771z" fill="#734103"/><path d="m219.873 443.234 40.127 18.884 40.127-18.884a160 160 0 0 0 91.873-144.771v-90.463h-264v90.463a160 160 0 0 0 91.873 144.771z" fill="#844b02"/><path d="m160 332.438a8.005 8.005 0 0 1 -7.6-5.508 168.215 168.215 0 0 1 -5.515-21.453 8 8 0 1 1 15.719-2.954 152.851 152.851 0 0 0 5 19.415 8.008 8.008 0 0 1 -7.6 10.5z" fill="#a55e00"/><path d="m215.992 410.469a7.951 7.951 0 0 1 -4.789-1.6 166.9 166.9 0 0 1 -46.156-52.992 8 8 0 0 1 14-7.758 150.82 150.82 0 0 0 41.75 47.945 8 8 0 0 1 -4.805 14.4z" fill="#a55e00"/><path d="m408 208h-304v-32a80 80 0 0 1 80-80h144a80 80 0 0 1 80 80z" fill="#c78513"/><path d="m328 96h-136a80 80 0 0 0 -80 80v32h296v-32a80 80 0 0 0 -80-80z" fill="#dc9315"/><g fill="#c48412"><path d="m272 96h-32l-8-48h48z"/><path d="m248.001 128.001h15.998v15.998h-15.998z" transform="matrix(.707 -.707 .707 .707 -21.186 220.853)"/><path d="m202.345 128.001h15.998v15.998h-15.998z" transform="matrix(.707 -.707 .707 .707 -34.558 188.569)"/><path d="m154.345 128.001h15.998v15.998h-15.998z" transform="matrix(.707 -.707 .707 .707 -48.617 154.628)"/><path d="m298.345 125.657h15.998v15.998h-15.998z" transform="matrix(.707 -.707 .707 .707 -4.783 255.765)"/><path d="m346.345 125.657h15.998v15.998h-15.998z" transform="matrix(.707 -.707 .707 .707 9.276 289.706)"/><path d="m272.001 162.345h15.998v15.998h-15.998z" transform="matrix(.707 -.707 .707 .707 -38.441 247.882)"/><path d="m226.345 162.345h15.998v15.998h-15.998z" transform="matrix(.707 -.707 .707 .707 -51.814 215.599)"/><path d="m178.345 162.345h15.998v15.998h-15.998z" transform="matrix(.707 -.707 .707 .707 -65.872 181.657)"/><path d="m322.345 160.001h15.998v15.998h-15.998z" transform="matrix(.707 -.707 .707 .707 -22.038 282.794)"/><path d="m370.345 160.001h15.998v15.998h-15.998z" transform="matrix(.707 -.707 .707 .707 -7.98 316.735)"/><path d="m130.345 160.001h15.998v15.998h-15.998z" transform="matrix(.707 -.707 .707 .707 -78.274 147.03)"/></g><path d="m120 208h272v24h-272z" fill="#714004"/><path d="m237.333 80 2.667 16h32l2.667-16z" fill="#b07711"/></svg>