<svg height="512pt" viewBox="0 0 512.05033 512" width="512pt" xmlns="http://www.w3.org/2000/svg"><path d="m46.933594 298.714844c1.441406 0 2.839844-.238282 4.265625-.367188v60.101563c.074219 16.058593 3.742187 31.894531 10.734375 46.351562 30.738281 64.144531 120.730468 107.246094 223.933594 107.246094 109.097656 0 191.1875-39.039063 225.28125-107.117187 1.480468-2.957032 1.117187-6.503907-.929688-9.101563-2.042969-2.597656-5.40625-3.78125-8.628906-3.035156-40.40625 9.386719-58.179688-12.800781-64-22.757813-7.378906-13.171875-11.148438-28.0625-10.921875-43.160156v-139.09375c.003906-50.292969-20.167969-98.488281-56.003907-133.777344-35.832031-35.292968-84.328124-54.730468-134.613281-53.957031-101.925781 1.554687-184.851562 87.570313-184.851562 191.769531v13.398438c-1.425781-.128906-2.824219-.367188-4.265625-.367188-25.921875 0-46.933594 21.011719-46.933594 46.933594s21.011719 46.933594 46.933594 46.933594zm21.332031-106.898438c0-94.925781 75.382813-173.285156 168.039063-174.703125h2.628906c45.261718 0 88.671875 17.980469 120.679687 49.988281 32.003907 32.003907 49.988281 75.414063 49.988281 120.679688v139.09375c-.226562 18.097656 4.339844 35.9375 13.234376 51.703125 13.265624 22.632813 38.375 35.605469 64.511718 33.339844-35.210937 53.023437-107.433594 83.0625-201.480468 83.0625-95.265626 0-181.019532-40.105469-208.53125-97.527344-5.894532-12.164063-8.992188-25.488281-9.070313-39.003906zm-21.332031 30.097656c1.429687.019532 2.855468.140626 4.265625.359376v59.015624c-1.410157.21875-2.835938.339844-4.265625.359376-16.496094 0-29.867188-13.371094-29.867188-29.867188s13.371094-29.867188 29.867188-29.867188zm0 0"/><path d="m363.996094 272.910156c-11.660156 11.660156-30.566406 11.660156-42.230469 0-3.347656-3.234375-8.667969-3.1875-11.960937.101563-3.292969 3.292969-3.339844 8.617187-.105469 11.964843 13.421875 13.421876 33.609375 17.4375 51.148437 10.171876 17.539063-7.261719 28.972656-24.375 28.972656-43.359376 0-18.984374-11.433593-36.097656-28.972656-43.359374-17.539062-7.265626-37.726562-3.25-51.148437 10.171874-3.234375 3.351563-3.1875 8.671876.105469 11.964844 3.292968 3.289063 8.613281 3.335938 11.960937.101563 2.71875-2.726563 5.941406-4.898438 9.488281-6.398438 11.203125-4.75 24.164063-2.214843 32.753906 6.398438 5.601563 5.601562 8.75 13.203125 8.75 21.125 0 7.925781-3.148437 15.523437-8.75 21.125zm0 0"/><path d="m90.878906 212.84375c2.121094.792969 4.46875.710938 6.53125-.230469 2.058594-.9375 3.660156-2.660156 4.453125-4.777343 1.4375-3.914063 3.585938-7.527344 6.332031-10.660157 2.527344-2.898437 5.613282-5.257812 9.070313-6.9375 6.785156-3.265625 14.683594-3.265625 21.46875 0 3.457031 1.679688 6.535156 4.035157 9.0625 6.929688 2.75 3.136719 4.902344 6.75 6.339844 10.667969 1.066406 2.855468 3.578125 4.925781 6.585937 5.429687 3.007813.503906 6.054688-.632813 7.996094-2.988281 1.9375-2.351563 2.476562-5.558594 1.410156-8.417969-2.175781-5.867187-5.410156-11.289063-9.539062-15.988281-4.046875-4.613282-8.980469-8.363282-14.507813-11.027344-11.449219-5.476562-24.765625-5.476562-36.214843 0-5.527344 2.667969-10.460938 6.421875-14.507813 11.035156-4.125 4.699219-7.355469 10.117188-9.53125 15.980469-.789063 2.128906-.703125 4.480469.246094 6.542969.949219 2.058594 2.675781 3.65625 4.804687 4.441406zm0 0"/><path d="m201.8125 212.84375c2.121094.792969 4.46875.710938 6.53125-.230469 2.058594-.9375 3.660156-2.660156 4.453125-4.777343 1.4375-3.914063 3.582031-7.527344 6.332031-10.660157 2.527344-2.898437 5.613282-5.257812 9.070313-6.9375 6.78125-3.265625 14.683593-3.265625 21.46875 0 3.453125 1.679688 6.535156 4.035157 9.0625 6.929688 2.75 3.136719 4.898437 6.75 6.339843 10.667969 1.066407 2.855468 3.578126 4.925781 6.585938 5.429687s6.054688-.632813 7.996094-2.988281c1.9375-2.351563 2.476562-5.558594 1.410156-8.417969-2.175781-5.867187-5.410156-11.289063-9.539062-15.988281-4.046876-4.613282-8.980469-8.363282-14.507813-11.027344-11.449219-5.476562-24.765625-5.476562-36.214844 0-5.527343 2.667969-10.460937 6.421875-14.507812 11.035156-4.125 4.699219-7.355469 10.117188-9.53125 15.980469-.789063 2.128906-.703125 4.480469.246093 6.542969.949219 2.058594 2.675782 3.65625 4.804688 4.441406zm0 0"/><path d="m102.398438 264.582031c0 4.710938 3.820312 8.53125 8.535156 8.53125h68.265625v17.066407c0 18.851562 15.28125 34.132812 34.132812 34.132812 18.851563 0 34.132813-15.28125 34.132813-34.132812v-17.066407h8.535156c4.710938 0 8.535156-3.820312 8.535156-8.53125 0-4.714843-3.824218-8.535156-8.535156-8.535156h-145.066406c-4.714844 0-8.535156 3.820313-8.535156 8.535156zm128 8.53125v17.066407c0 9.425781-7.640626 17.066406-17.066407 17.066406s-17.066406-7.640625-17.066406-17.066406v-17.066407zm0 0"/></svg>