<svg height="512pt" viewBox="0 -91 512 512" width="512pt" xmlns="http://www.w3.org/2000/svg"><path d="m512 180.015625-9.902344 56.101563 8.402344 33.898437c-6.902344 34.199219-37.199219 60-73.5 60h-362c-41.398438 0-75-33.597656-75-75v-176.398437c0-40.800782 30-75 68.402344-78.300782 26.398437-2.402344 51.296875 9 66.597656 29.699219h32c18-24 48.601562-35.097656 78.898438-27.597656 26.402343 6.597656 47.699218 27.898437 54 54.597656 2.703124 11.101563 2.703124 22.203125.601562 33h64.199219c6-17.398437 22.800781-30 42.300781-30 11.398438 0 21.898438 4.5 30 11.402344 8.101562-6.902344 18.601562-11.402344 30-11.402344 24.902344 0 44.699219 19.800781 45 44.699219zm0 0" fill="#7fe881"/><path d="m512 180.015625-9.902344 56.101563 8.402344 33.898437c-6.902344 34.199219-37.199219 60-73.5 60h-286v-300h16c18-24 48.601562-35.097656 78.898438-27.597656 26.402343 6.597656 47.699218 27.898437 54 54.597656 2.703124 11.101563 2.703124 22.203125.601562 33h64.199219c6-17.398437 22.800781-30 42.300781-30 11.398438 0 21.898438 4.5 30 11.402344 8.101562-6.902344 18.601562-11.402344 30-11.402344 24.902344 0 44.699219 19.800781 45 44.699219zm0 0" fill="#5bc980"/><path d="m311.902344 180.015625-23.667969 51.175781-41.132813 36.125c-2.402343-1.800781-4.5-4.199218-5.402343-7.199218l-22.199219-60c-1.800781-4.5-1.199219-9.601563 1.800781-13.800782 2.699219-3.898437 7.199219-6.300781 12.296875-6.300781zm0 0" fill="#deecf1"/><path d="m242 75.015625c0 8.285156-6.714844 15-15 15s-15-6.714844-15-15 6.714844-15 15-15 15 6.714844 15 15zm0 0" fill="#523522"/><path d="m90 75.015625c0 8.285156-6.714844 15-15 15s-15-6.714844-15-15 6.714844-15 15-15 15 6.714844 15 15zm0 0" fill="#714c2f"/><path d="m311.996094 180.015625 13.296875 45 36.703125 45 36.355468-46.347656 13.644532-43.652344zm0 0" fill="#deecf1"/><path d="m411.996094 180.015625 15.652344 45 34.351562 45 34.472656-46.347656 15.527344-43.652344zm0 0" fill="#deecf1"/><g fill="#c5d3dd"><path d="m361.996094 270.015625h100.003906l-50.003906-90zm0 0"/><path d="m512 180.015625v75c0 5.101563-.601562 10.203125-1.5 15h-48.601562zm0 0"/><path d="m362 270.015625h-106.199219c-3 0-6-.898437-8.699219-2.699219l64.800782-87.300781zm0 0"/></g></svg>