<svg height="512pt" viewBox="0 -91 512 512" width="512pt" xmlns="http://www.w3.org/2000/svg"><path d="m242 65c0 8.285156-6.714844 15-15 15s-15-6.714844-15-15c0-8.28125 6.714844-15 15-15s15 6.71875 15 15zm0 0"/><path d="m90 65c0 8.285156-6.714844 15-15 15s-15-6.714844-15-15c0-8.28125 6.714844-15 15-15s15 6.71875 15 15zm0 0"/><path d="m511.222656 199.742188c.515625-1.539063.777344-3.367188.777344-4.742188v-90c0-24.8125-20.1875-45-45-45-11.515625 0-22.03125 4.347656-30 11.488281-7.96875-7.140625-18.484375-11.488281-30-11.488281-19.558594 0-36.238281 12.539062-42.429688 30h-64.089843c2.179687-10.75 2.003906-22.019531-.617188-33.101562-6.296875-26.597657-27.480469-48.015626-53.964843-54.566407-30.265626-7.476562-60.90625 3.5625-78.917969 27.667969h-31.953125c-15.433594-20.695312-40.15625-31.945312-66.496094-29.722656-38.425781 3.242187-68.53125 37.65625-68.53125 78.34375v176.378906c0 41.355469 33.644531 75 75 75h362c41.355469 0 75-33.644531 75-75 0-8.28125-6.714844-15-15-15h-15l27-36c.871094-1.160156 1.699219-2.691406 2.222656-4.257812zm-259.953125 10.257812h29.515625l-19.675781 19.679688zm64.109375 7.835938 16.621094 22.164062h-38.785156zm31.621094-7.835938h30l-15 20zm90 90h-362c-24.8125 0-45-20.1875-45-45v-176.378906c0-25.226563 18.03125-46.507813 41.054688-48.449219 1.324218-.113281 2.640624-.167969 3.949218-.167969 16.125 0 30.816406 8.386719 38.984375 22.507813 2.683594 4.636719 7.632813 7.488281 12.984375 7.488281h48.054688c5.355468 0 10.304687-2.851562 12.984375-7.488281 8.457031-14.625 27.414062-26.808594 50.6875-21.054688 15.445312 3.820313 28.292969 16.820313 31.96875 32.351563 2.5 10.546875 1.191406 19.398437-1.222657 26.191406h-87.445312c-8.285156 0-15 6.71875-15 15 0 8.285156 6.714844 15 15 15h195c8.285156 0 15-6.714844 15-15 0-8.269531 6.730469-15 15-15s15 6.730469 15 15c0 8.285156 6.714844 15 15 15s15-6.714844 15-15c0-8.269531 6.730469-15 15-15s15 6.730469 15 15v75c-15.042969 0-240.035156 0-255 0-5.199219 0-10.027344 2.695312-12.757812 7.117188-2.734376 4.421874-2.984376 9.941406-.65625 14.59375l30 60c1.207031 2.414062 3.0625 4.46875 5.34375 5.925781 2.492187 1.59375 5.347656 2.363281 8.070312 2.363281h222.429688c-6.191407 17.460938-22.871094 30-42.429688 30zm30-90-15 20-15-20zm-75 30 15-20 15 20zm0 0"/></svg>