<svg height="512pt" viewBox="0 0 512.01994 512" width="512pt" xmlns="http://www.w3.org/2000/svg"><path d="m219.109375 458.375c-3.394531-.007812-6.765625-.507812-10.015625-1.484375-8.832031-2.625-16.25-8.675781-20.59375-16.800781l-16.488281-30.722656c-1.464844-2.730469-1.359375-6.039063.277343-8.671876 1.632813-2.636718 4.546876-4.199218 7.648438-4.101562 3.097656.097656 5.910156 1.839844 7.375 4.574219l16.488281 30.710937c2.183594 4.054688 5.886719 7.074219 10.296875 8.394532 4.414063 1.324218 9.167969.835937 13.21875-1.347657l61.121094-32.976562c8.433594-4.542969 11.59375-15.0625 7.054688-23.5l-16.757813-31.238281c-1.503906-2.738282-1.425781-6.070313.210937-8.730469 1.632813-2.660157 4.570313-4.238281 7.691407-4.128907 3.117187.105469 5.941406 1.882813 7.390625 4.648438l16.753906 31.242188c9.039062 16.875 2.730469 37.882812-14.109375 46.988281l-61.128906 32.925781c-5.039063 2.753906-10.691407 4.203125-16.433594 4.21875zm0 0" fill="#c03a2b"/><path d="m92.203125 468.917969-19.160156 38.320312c-1.25 2.492188-3.617188 4.230469-6.367188 4.675781-2.75.449219-5.546875-.453124-7.519531-2.417968l-56.625-56.605469c-1.964844-1.972656-2.867188-4.769531-2.417969-7.519531.445313-2.75 2.183594-5.117188 4.675781-6.367188l38.320313-19.160156zm0 0" fill="#d25627"/><path d="m431.761719 284.242188-339.558594 184.675781-49.09375-49.09375 184.675781-339.558594c1.308594-2.402344 3.671875-4.050781 6.378906-4.441406 2.707032-.394531 5.441407.511719 7.378907 2.445312l192.214843 192.21875c1.933594 1.933594 2.839844 4.667969 2.445313 7.375-.390625 2.707031-2.039063 5.070313-4.441406 6.378907zm0 0" fill="#fac176"/><path d="m431.804688 284.242188-339.566407 184.667968-24.472656-24.472656 274.050781-265.894531 91.898438 91.898437c1.957031 1.925782 2.890625 4.660156 2.511718 7.378906-.375 2.71875-2.015624 5.101563-4.421874 6.421876zm0 0" fill="#f18d46"/><g fill="#ff5364"><path d="m276.289062 72.613281c-2.792968 0-5.414062-1.339843-7.046874-3.605469-1.632813-2.265624-2.074219-5.175781-1.191407-7.824218l18.417969-55.226563c.976562-2.945312 3.453125-5.144531 6.496094-5.769531 3.039062-.625 6.183594.421875 8.242187 2.742188 2.0625 2.320312 2.726563 5.566406 1.75 8.511718l-18.433593 55.234375c-1.179688 3.546875-4.5 5.9375-8.234376 5.9375zm0 0"/><path d="m448.101562 244.425781c-4.269531.019531-7.921874-3.070312-8.605468-7.285156-.6875-4.214844 1.796875-8.300781 5.855468-9.636719l55.234376-18.40625c4.554687-1.511718 9.472656.949219 10.988281 5.503906 1.515625 4.550782-.949219 9.472657-5.503907 10.984376l-55.226562 18.390624c-.882812.296876-1.808594.449219-2.742188.449219zm0 0"/><path d="m374.46875 146.234375c-3.507812 0-6.671875-2.113281-8.015625-5.355469-1.339844-3.242187-.597656-6.976562 1.882813-9.457031l42.953124-42.957031c2.140626-2.398438 5.433594-3.417969 8.558594-2.648438 3.121094.769532 5.5625 3.203125 6.339844 6.324219.78125 3.121094-.230469 6.414063-2.625 8.5625l-42.957031 42.953125c-1.617188 1.648438-3.828125 2.578125-6.136719 2.578125zm0 0"/><path d="m325.371094 109.421875c-3.074219 0-5.917969-1.628906-7.476563-4.28125-1.554687-2.648437-1.59375-5.925781-.101562-8.613281l30.679687-55.226563c2.328125-4.1875 7.613282-5.695312 11.800782-3.367187 4.1875 2.332031 5.695312 7.613281 3.367187 11.804687l-30.675781 55.226563c-1.535156 2.753906-4.441406 4.460937-7.59375 4.457031zm0 0"/><path d="m411.324219 195.292969c-3.953125.003906-7.410157-2.667969-8.40625-6.496094-.996094-3.828125.722656-7.84375 4.179687-9.765625l55.195313-30.601562c4.1875-2.328126 9.472656-.820313 11.800781 3.367187 2.328125 4.191406.820312 9.472656-3.367188 11.804687l-55.226562 30.675782c-1.285156.683594-2.71875 1.035156-4.175781 1.015625zm0 0"/></g><path d="m153.589844 293.507812c-1.433594.003907-2.84375-.355468-4.105469-1.039062-4.21875-2.269531-5.800781-7.53125-3.53125-11.75l42.957031-79.777344c2.273438-4.21875 7.539063-5.796875 11.757813-3.523437 4.21875 2.273437 5.796875 7.539062 3.523437 11.757812l-42.957031 79.769531c-1.511719 2.8125-4.449219 4.566407-7.644531 4.5625zm0 0" fill="#fdd7ad"/><path d="m208.78125 189.21875c-3.003906-.003906-5.796875-1.558594-7.378906-4.117188-1.578125-2.558593-1.722656-5.75-.378906-8.441406l12.28125-24.550781c2.144531-4.285156 7.355468-6.023437 11.644531-3.878906 4.285156 2.144531 6.023437 7.359375 3.878906 11.648437l-12.28125 24.546875c-1.472656 2.941407-4.476563 4.792969-7.765625 4.792969zm0 0" fill="#fdd7ad"/><path d="m431.804688 284.242188-21.605469 11.714843-194.128907-194.125 11.714844-21.609375c1.320313-2.40625 3.703125-4.046875 6.421875-4.421875 2.71875-.378906 5.453125.554688 7.378907 2.511719l192.128906 192.128906c1.957031 1.925782 2.890625 4.660156 2.511718 7.378906-.375 2.71875-2.015624 5.101563-4.421874 6.421876zm0 0" fill="#d25627"/></svg>