<?xml version="1.0" encoding="iso-8859-1"?>
<!-- Generator: Adobe Illustrator 19.0.0, SVG Export Plug-In . SVG Version: 6.00 Build 0)  -->
<svg version="1.1" id="Capa_1" xmlns="http://www.w3.org/2000/svg" xmlns:xlink="http://www.w3.org/1999/xlink" x="0px" y="0px"
	 viewBox="0 0 512.001 512.001" style="enable-background:new 0 0 512.001 512.001;" xml:space="preserve">
<path style="fill:#E9EFF4;" d="M394.205,0.055c-19.192-0.888-39.157,9.818-50.26,25.451
	c-46.039,57.815-57.235,151.029-59.958,192.496c-0.194,2.958-2.84,5.126-5.78,4.753c-8.146-1.036-16.48-1.575-24.961-1.575
	c-6.639,0-13.187,0.333-19.626,0.974c-2.893,0.288-5.452-1.862-5.646-4.763c-2.791-41.759-14.099-134.347-59.917-191.885
	c-11.103-15.633-31.068-26.34-50.26-25.451c-30.702,1.421-43.67,34.163-41.864,61.149c4.734,70.721,55.083,143.904,82.07,178.427
	c1.916,2.451,1.234,6.004-1.434,7.603c-43.854,26.275-72.551,69.935-72.551,119.356c0,80.307,75.766,145.409,169.228,145.409
	s169.228-65.102,169.228-145.409c0-48.053-27.132-90.657-68.947-117.132c-2.591-1.64-3.22-5.143-1.319-7.548
	c26.483-33.499,79.019-108.393,83.861-180.706C437.875,34.218,424.907,1.476,394.205,0.055z"/>
<path style="fill:#D3DCE2;" d="M352.203,241.91c-1.895,2.4-1.267,5.902,1.319,7.55c41.819,26.472,68.949,69.073,68.949,117.134
	c0,80.3-75.768,145.407-169.221,145.407c-9.425,0-18.674-0.659-27.677-1.937c80.3-11.351,141.555-71.267,141.555-143.471
	c0-19.764-4.728-39.344-13.513-57.034c-9.012-18.146-22.988-30.772-37.436-44.167c-14.934-13.829-10.474-34.659-0.261-49.831
	c11.906-17.686,23.366-34.678,33.249-53.733c16.174-31.187,29.192-65.283,31.558-100.625c1.257-18.828-4.676-40.459-18.808-52.304
	c9.775-5.984,21.157-9.363,32.291-8.848c30.695,1.421,43.673,34.165,41.86,61.152C431.226,133.522,378.695,208.414,352.203,241.91z"
	/>
<path style="fill:#F9AC8A;" d="M351.953,73.762c5.685-8.447,15.579-14.466,24.878-14.361c14.876,0.168,20.551,17.174,19.164,31.427
	c-4.134,42.47-36.957,87.738-48.1,102.024c-2.142,2.746-5.825,3.761-9.072,2.502l-7.366-2.854l-0.321-0.124l-7.366-2.854
	c-3.247-1.258-5.285-4.489-5.018-7.962C320.144,163.496,326.391,107.93,351.953,73.762z"/>
<path style="fill:#F79B77;" d="M396,90.828c-4.141,42.468-36.957,87.737-48.102,102.023c-2.142,2.75-5.83,3.759-9.075,2.503
	l-7.364-2.853l-1.597-0.618c11.794-15.275,43.302-59.504,47.35-101.055c1.092-11.186-2.173-24.071-10.815-29.16
	c3.389-1.483,6.953-2.307,10.434-2.266C391.704,59.567,397.38,76.572,396,90.828z"/>
<path style="fill:#F9AC8A;" d="M159.709,73.762c-5.685-8.447-15.579-14.466-24.878-14.361
	c-14.876,0.168-20.552,17.174-19.164,31.427c4.134,42.47,36.957,87.738,48.1,102.024c2.142,2.746,5.825,3.761,9.072,2.502
	l7.366-2.854l0.321-0.124l7.366-2.854c3.248-1.258,5.285-4.489,5.018-7.962C191.518,163.496,185.27,107.93,159.709,73.762z"/>
<path style="fill:#F79B77;" d="M192.912,181.562c0.268,3.471-1.772,6.705-5.016,7.962l-7.375,2.853l-0.319,0.124l-2.214,0.855
	c0.021-0.319,0.01-0.649-0.01-0.979c-1.39-18.066-7.643-73.636-33.208-107.801c-5.675-8.446-15.574-14.462-24.875-14.359
	c-0.33,0-0.649,0.011-0.958,0.041c3.08-6.283,8.281-10.774,15.893-10.856c9.301-0.103,19.199,5.913,24.875,14.359
	C185.269,107.926,191.521,163.495,192.912,181.562z"/>
<g>
	<circle style="fill:#5B3E3E;" cx="184.23" cy="352.971" r="16.423"/>
	<circle style="fill:#5B3E3E;" cx="322.26" cy="352.971" r="16.423"/>
	<path style="fill:#5B3E3E;" d="M281.721,433.677c-6.539,0-11.586-1.733-15-5.151c-5.641-5.647-5.751-14.492-5.752-14.755
		c0-0.003,0-0.006,0-0.009c0-0.072-0.001-0.132-0.002-0.181c-0.001-0.081-0.012-0.159-0.016-0.239
		c-0.007-0.158-0.014-0.315-0.031-0.47c-0.011-0.104-0.029-0.206-0.044-0.309c-0.022-0.15-0.044-0.3-0.075-0.448
		c-0.023-0.109-0.052-0.216-0.079-0.323c-0.034-0.135-0.068-0.271-0.109-0.403c-0.038-0.121-0.082-0.237-0.126-0.355
		c-0.042-0.113-0.081-0.226-0.127-0.336c-0.058-0.139-0.125-0.273-0.191-0.407c-0.041-0.083-0.079-0.167-0.123-0.248
		c-0.086-0.161-0.181-0.316-0.278-0.469c-0.031-0.049-0.059-0.099-0.091-0.147c-0.123-0.186-0.255-0.365-0.393-0.539
		c-0.009-0.012-0.018-0.024-0.027-0.036c-1.418-1.768-3.587-2.903-6.014-2.903c-0.04,0-0.079,0-0.12,0.001
		c-4.155,0.064-7.484,3.374-7.595,7.488c-0.002,0.048-0.009,0.095-0.01,0.144c-0.001,0.046-0.001,0.104-0.002,0.171
		c0,0.004,0,0.009,0,0.013c0,0.09-0.054,9.055-5.751,14.759c-3.414,3.418-8.46,5.152-15.001,5.152c-4.267,0-7.725,3.459-7.725,7.725
		s3.458,7.725,7.725,7.725c10.881,0,19.657-3.31,26.086-9.839c0.871-0.885,1.663-1.799,2.391-2.729
		c0.728,0.93,1.52,1.844,2.391,2.729c6.429,6.529,15.205,9.839,26.085,9.839c4.267,0,7.725-3.459,7.725-7.725
		C289.446,437.135,285.988,433.677,281.721,433.677z"/>
</g>
<path style="fill:#6D5050;" d="M255.512,411.928c7.808-1.032,14.55-8.16,18.702-14.406c2.104-3.167,5.413-7.207,5.233-11.245
	c-0.156-3.494-4.361-4.402-7.118-4.858c-5.545-0.917-11.313-1.498-17.02-1.532h-4.127c-5.708,0.034-11.475,0.615-17.021,1.532
	c-2.757,0.456-6.962,1.364-7.118,4.858c-0.18,4.038,3.129,8.079,5.233,11.245c3.958,5.955,9.599,11.242,16.424,13.674
	C251.032,412.026,253.314,412.219,255.512,411.928z"/>
<path style="fill:#5B3E3E;" d="M279.443,386.277c0.185,4.038-3.121,8.075-5.233,11.248c-4.151,6.242-10.887,13.37-18.695,14.4
	c-2.204,0.299-4.481,0.103-6.819-0.731c-0.35-0.124-0.69-0.258-1.03-0.391c6.036-2.462,11.176-8.168,14.575-13.277
	c2.101-3.172,5.418-7.21,5.232-11.248c-0.154-3.492-4.357-4.398-7.117-4.862c-4.274-0.711-8.683-1.215-13.091-1.411
	c1.308-0.072,2.606-0.103,3.914-0.113h4.13c5.706,0.031,11.474,0.608,17.016,1.524C275.086,381.879,279.289,382.785,279.443,386.277
	z"/>
<g>
</g>
<g>
</g>
<g>
</g>
<g>
</g>
<g>
</g>
<g>
</g>
<g>
</g>
<g>
</g>
<g>
</g>
<g>
</g>
<g>
</g>
<g>
</g>
<g>
</g>
<g>
</g>
<g>
</g>
</svg>
