<svg id="Capa_1" enable-background="new 0 0 512 512" height="512" viewBox="0 0 512 512" width="512" xmlns="http://www.w3.org/2000/svg"><path d="m392 136v30h60v30h30v-60z" fill="#ff9100"/><path d="m392 106h-181-181l-30 30v120l30 30h181 181l30-30v-120z" fill="#fdbf00"/><path d="m422 256v-120l-30-30h-181v180h181z" fill="#ff9100"/><path d="m377 76h-166-165c-24.814 0-46 20.186-46 45v15h211 211v-15c0-24.814-20.186-45-45-45z" fill="#ffda2d"/><path d="m422 121c0-24.814-20.186-45-45-45h-166v60h211z" fill="#fdbf00"/><path d="m512 301c0-24.814-20.186-45-45-45h-45-211-211v120h211 301v-45l-15-15z" fill="#ffda2d"/><path d="m512 331-15-15 15-15c0-24.814-20.186-45-45-45h-45-211v120h301z" fill="#fdbf00"/><path d="m482 301h30v30h-30z" fill="#ff9100"/><path d="m121 436c-33.091 0-60-26.909-60-60s26.909-60 60-60 60 26.909 60 60-26.909 60-60 60z" fill="#596c76"/><path d="m121 346c-16.538 0-30 13.462-30 30s13.462 30 30 30 30-13.462 30-30-13.462-30-30-30z" fill="#f2f2f2"/><path d="m392 436c-33.091 0-60-26.909-60-60s26.909-60 60-60 60 26.909 60 60-26.909 60-60 60z" fill="#465a61"/><path d="m392 346c-16.538 0-30 13.462-30 30s13.462 30 30 30 30-13.462 30-30-13.462-30-30-30z" fill="#e7e7f2"/><path d="m30 166h91v60h-91z" fill="#f2f2f2"/><path d="m301 166h91v60h-91z" fill="#e7e7f2"/><path d="m211 166h-60v60h60 60v-60z" fill="#f2f2f2"/><path d="m211 166h60v60h-60z" fill="#e7e7f2"/></svg>