<svg height="512pt" viewBox="-65 0 512 512.00026" width="512pt" xmlns="http://www.w3.org/2000/svg"><path d="m243.894531 500.03125c-16.628906 7.980469-34.628906 11.96875-52.621093 11.96875-3.78125 0-7.570313-.179688-11.339844-.535156-14.15625-1.316406-28.148438-5.128906-41.277344-11.433594l6.984375-40.253906 52.96875-26.527344 38.300781 26.527344 3.277344 18.890625zm0 0" fill="#7f4a26"/><path d="m243.894531 500.03125c-16.628906 7.980469-34.628906 11.96875-52.621093 11.96875-3.78125 0-7.570313-.179688-11.339844-.535156v-32.796875h60.253906zm0 0" fill="#935d35"/><path d="m346.824219 448.414062c-102.539063 16.972657-208.550781 16.972657-311.085938 0-31.152343-5.152343-45.792969-32.964843-28.117187-53.507812 15.9375-18.535156 31.96875-37.46875 48.074218-56.828125 32.148438-38.621094 64.589844-78.894531 97.101563-120.820313 17.4375-22.472656 59.53125-22.472656 76.964844 0 32.515625 41.925782 64.957031 82.199219 97.101562 120.820313 16.105469 19.359375 32.136719 38.292969 48.078125 56.828125 17.675782 20.542969 3.023438 48.355469-28.117187 53.507812zm0 0" fill="#9fd661"/><path d="m326.863281 338.078125c-1.191406.300781-2.425781.554687-3.695312.761719-86.945313 14.386718-176.84375 14.386718-263.785157 0-1.257812-.207032-2.492187-.460938-3.6875-.761719 32.148438-38.621094 64.589844-78.894531 97.101563-120.820313 17.4375-22.472656 59.53125-22.472656 76.964844 0 32.515625 41.925782 64.957031 82.199219 97.101562 120.820313zm0 0" fill="#8bc34c"/><path d="m323.167969 307.425781c-86.945313 14.386719-176.84375 14.386719-263.785157 0-26.410156-4.375-38.820312-27.957031-23.835937-45.371093 19.730469-22.945313 39.636719-46.632813 59.65625-71.082032 21.058594-25.6875 42.234375-52.210937 63.449219-79.5625 14.773437-19.058594 50.472656-19.058594 65.257812 0 21.214844 27.351563 42.378906 53.875 63.433594 79.5625 20.023438 24.449219 39.941406 48.136719 59.667969 71.082032 14.984375 17.414062 2.566406 40.996093-23.84375 45.371093zm0 0" fill="#9fd661"/><path d="m287.34375 190.972656c-63.402344 9.90625-128.734375 9.90625-192.140625 0 21.058594-25.6875 42.234375-52.210937 63.449219-79.5625 14.773437-19.058594 50.472656-19.058594 65.257812 0 21.214844 27.351563 42.378906 53.875 63.433594 79.5625zm0 0" fill="#8bc34c"/><path d="m166.140625 11.011719c-31.886719 41.113281-63.652344 79.792969-94.828125 116.035156-11.542969 13.421875-1.976562 31.585937 18.367188 34.953125 66.972656 11.085938 136.222656 11.085938 203.199218 0 20.34375-3.367188 29.90625-21.53125 18.363282-34.953125-31.171876-36.242187-62.941407-74.921875-94.828126-116.035156-11.386718-14.683594-38.882812-14.683594-50.273437 0zm0 0" fill="#9fd661"/><g fill="#8bc34c"><path d="m189.246094.0351562v.0117188s-96.273438 162.191406-47.570313 168.277344c-17.433593-1.371094-34.796875-3.488281-52-6.335938-20.347656-3.363281-29.917969-21.53125-18.367187-34.953125 31.171875-36.242187 62.933594-74.914062 94.828125-116.035156 5.289062-6.828125 14.085937-10.492188 23.109375-10.9648438zm0 0"/><path d="m154.796875 194.660156-20.417969 61.246094-19.800781 58.671875c-18.496094-1.75-36.914063-4.136719-55.195313-7.164063-26.410156-4.363281-38.828124-27.945312-23.84375-45.371093 18.1875-21.152344 36.535157-42.945313 54.984376-65.363281 4.902343-5.957032 9.8125-11.96875 14.722656-18.019532zm0 0"/><path d="m106.355469 457.367188c.011719 0 .023437.011718.03125.011718-23.675781-2.105468-47.257813-5.089844-70.660157-8.964844-31.140624-5.164062-45.792968-32.972656-28.117187-53.519531 14.578125-16.941406 29.226563-34.230469 43.9375-51.867187 8.996094-10.761719 18.003906-21.652344 27.027344-32.679688l1.058593-1.664062 51.605469 28.902344s-98.453125 98.210937-24.882812 119.78125zm0 0"/></g><path d="m136.328125 330.492188c0 21.683593-17.578125 39.265624-39.265625 39.265624-21.683594 0-39.265625-17.582031-39.265625-39.265624 0-21.6875 17.582031-39.265626 39.265625-39.265626 21.6875 0 39.265625 17.578126 39.265625 39.265626zm0 0" fill="#ef5361"/><path d="m325.125 230.570312c0 21.6875-17.582031 39.265626-39.265625 39.265626-21.6875 0-39.269531-17.578126-39.269531-39.265626 0-21.683593 17.582031-39.265624 39.269531-39.265624 21.683594 0 39.265625 17.582031 39.265625 39.265624zm0 0" fill="#ef5361"/><path d="m183.519531 80.214844c0 21.6875-17.582031 39.265625-39.265625 39.265625-21.6875 0-39.265625-17.578125-39.265625-39.265625 0-21.683594 17.578125-39.265625 39.265625-39.265625 21.683594 0 39.265625 17.582031 39.265625 39.265625zm0 0" fill="#ef5361"/><path d="m109.226562 367.824219c-3.820312 1.257812-7.914062 1.929687-12.15625 1.929687-21.6875 0-39.269531-17.582031-39.269531-39.257812 0-21.6875 17.582031-39.269532 39.269531-39.269532 4.242188 0 8.335938.671876 12.15625 1.925782-15.726562 5.121094-27.097656 19.90625-27.097656 37.34375 0 17.433594 11.371094 32.210937 27.097656 37.328125zm0 0" fill="#dc4250"/><path d="m298.027344 267.90625c-3.832032 1.257812-7.914063 1.925781-12.167969 1.925781-21.683594 0-39.265625-17.570312-39.265625-39.257812 0-21.683594 17.582031-39.265625 39.265625-39.265625 4.253906 0 8.335937.667968 12.167969 1.925781-15.726563 5.121094-27.097656 19.90625-27.097656 37.339844 0 17.4375 11.371093 32.222656 27.097656 37.332031zm0 0" fill="#dc4250"/><path d="m156.421875 117.558594c-3.832031 1.253906-7.925781 1.925781-12.167969 1.925781-21.683594 0-39.265625-17.582031-39.265625-39.269531 0-21.683594 17.582031-39.265625 39.265625-39.265625 4.242188 0 8.335938.667969 12.167969 1.925781-15.726563 5.121094-27.097656 19.90625-27.097656 37.339844 0 17.4375 11.371093 32.222656 27.097656 37.34375zm0 0" fill="#dc4250"/></svg>