<svg height="511pt" viewBox="0 -35 511.99902 511" width="511pt" xmlns="http://www.w3.org/2000/svg"><path d="m441.863281 149.40625c-24.46875 12.789062-197.5 129.976562-185.863281 156.867188 11.636719 26.890624 203.535156-46.699219 228.003906-59.488282 24.464844-12.789062 34.863282-44.957031 23.226563-71.847656-11.632813-26.890625-40.902344-38.320312-65.367188-25.53125zm0 0" fill="#935b45"/><path d="m256 306.273438c-9.257812-21.390626 98.339844-99.917969 155.054688-137.585938 28.066406 28.523438 43.101562 62.132812 51.058593 87.71875-57.3125 23.417969-196.265625 72.625-206.113281 49.867188zm0 0" fill="#774d3f"/><path d="m381.824219 88.988281c-19.007813 21.21875-145.128907 196.390625-125.824219 217.285157 19.304688 20.890624 176.722656-120.40625 195.734375-141.625 19.007813-21.214844 18.769531-55.355469-.535156-76.246094-19.304688-20.894532-50.363281-20.632813-69.375.585937zm0 0" fill="#b2785b"/><path d="m256 306.273438c-14.523438-15.722657 53.273438-118.777344 95.835938-177.882813 34.011718 14.566406 58.378906 36.410156 75.800781 59.574219-49.980469 45.9375-156.019531 135.210937-171.636719 118.308594zm0 0" fill="#935b45"/><path d="m297.84375 52.851562c-10.308594 27.535157-66.898438 242.085938-41.84375 253.421876 25.054688 11.332031 122.261719-184.84375 132.574219-212.382813 10.3125-27.535156-1.640625-59.046875-26.695313-70.378906-25.050781-11.335938-53.722656 1.800781-64.035156 29.339843zm0 0" fill="#c68d6d"/><path d="m256 306.273438c-18.035156-8.160157 6.238281-121.628907 25.097656-194.832032 35.40625 2.992188 64.242188 12.292969 87.71875 25.234375-32.449218 65.851563-93.679687 178.253907-112.816406 169.597657zm0 0" fill="#b2785b"/><path d="m70.136719 149.40625c24.46875 12.789062 197.5 129.976562 185.863281 156.867188-11.636719 26.890624-203.539062-46.699219-228.003906-59.488282-24.464844-12.789062-34.867188-44.957031-23.230469-71.847656s40.90625-38.320312 65.371094-25.53125zm0 0" fill="#935b45"/><path d="m256 306.273438c9.257812-21.390626-98.339844-99.917969-155.054688-137.585938-28.066406 28.523438-43.101562 62.132812-51.058593 87.71875 57.3125 23.417969 196.265625 72.625 206.113281 49.867188zm0 0" fill="#774d3f"/><path d="m130.171875 88.988281c19.011719 21.21875 145.132813 196.390625 125.828125 217.285157-19.304688 20.890624-176.722656-120.40625-195.734375-141.625-19.007813-21.214844-18.769531-55.355469.535156-76.246094 19.304688-20.894532 50.363281-20.632813 69.371094.585937zm0 0" fill="#b2785b"/><path d="m256 306.273438c14.523438-15.722657-53.273438-118.777344-95.835938-177.882813-34.011718 14.566406-58.378906 36.410156-75.804687 59.574219 49.984375 45.9375 156.019531 135.210937 171.640625 118.308594zm0 0" fill="#935b45"/><path d="m214.152344 52.851562c10.3125 27.535157 66.902344 242.085938 41.847656 253.421876-25.054688 11.332031-122.265625-184.84375-132.574219-212.382813-10.3125-27.535156 1.640625-59.046875 26.691407-70.378906 25.054687-11.335938 53.726562 1.800781 64.035156 29.339843zm0 0" fill="#c68d6d"/><path d="m256 306.273438c18.035156-8.160157-6.238281-121.628907-25.097656-194.832032-35.40625 2.992188-64.246094 12.289063-87.722656 25.234375 32.453124 65.847657 93.683593 178.253907 112.820312 169.597657zm0 0" fill="#b2785b"/><path d="m305.054688 54.417969c0 29.777343-21.960938 251.855469-49.054688 251.855469s-49.058594-222.078126-49.058594-251.855469c0-29.777344 21.964844-53.917969 49.058594-53.917969s49.054688 24.140625 49.054688 53.917969zm0 0" fill="#dd9f80"/><path d="m393.605469 310.773438c0 75.996093-61.609375 111.359374-137.605469 111.359374s-137.605469-35.363281-137.605469-111.359374c0-76 61.609375-174.765626 137.605469-174.765626s137.605469 98.765626 137.605469 174.765626zm0 0" fill="#dd9f80"/><path d="m256 136.007812c-75.996094 0-137.605469 98.765626-137.605469 174.765626 0 3.597656.140625 7.109374.410157 10.527343 116.707031-14.097656 137.195312-125.464843 137.195312-125.464843s20.488281 111.367187 137.195312 125.464843c.269532-3.417969.410157-6.929687.410157-10.527343 0-76-61.609375-174.765626-137.605469-174.765626zm0 0" fill="#eab9a4"/><path d="m326.296875 143.558594c0 38.824218-31.472656 70.296875-70.296875 70.296875s-70.296875-31.472657-70.296875-70.296875c0-38.824219 31.472656-70.296875 70.296875-70.296875s70.296875 31.472656 70.296875 70.296875zm0 0" fill="#ffe9c5"/><path d="m239.9375 157.328125h32.125c10.089844 0 15.644531 11.730469 9.246094 19.539063l-12.949219 15.796874c-6.394531 7.800782-18.324219 7.800782-24.71875 0l-12.949219-15.796874c-6.398437-7.808594-.847656-19.539063 9.246094-19.539063zm0 0" fill="#ffc477"/><path d="m213.980469 438.292969c-9.035157-7.054688-21.648438-7.304688-30.484375 0-6.453125 5.335937-16.007813 4.433593-21.347656-2.019531-5.335938-6.453126-4.433594-16.011719 2.019531-21.347657 20.03125-16.574219 49.113281-16.570312 69.144531 0 6.453125 5.335938 7.355469 14.894531 2.015625 21.347657-3 3.625-13.253906 8.335937-21.347656 2.019531zm0 0" fill="#ffe9c5"/><path d="m328.503906 438.292969c-9.035156-7.054688-21.652344-7.304688-30.484375 0-6.453125 5.335937-16.011719 4.433593-21.347656-2.019531-5.339844-6.453126-4.4375-16.011719 2.015625-21.347657 20.035156-16.574219 49.113281-16.570312 69.144531 0 6.453125 5.335938 7.359375 14.894531 2.019531 21.347657-3 3.625-13.253906 8.335937-21.347656 2.019531zm0 0" fill="#ffe9c5"/><g fill="#57565c"><path d="m220.230469 146.226562c-4.265625 0-7.726563-3.460937-7.726563-7.726562v-12.828125c0-4.265625 3.460938-7.726563 7.726563-7.726563 4.269531 0 7.726562 3.460938 7.726562 7.726563v12.828125c0 4.265625-3.457031 7.726562-7.726562 7.726562zm0 0"/><path d="m291.765625 146.226562c-4.265625 0-7.722656-3.460937-7.722656-7.726562v-12.828125c0-4.265625 3.457031-7.726563 7.722656-7.726563 4.269531 0 7.726563 3.460938 7.726563 7.726563v12.828125c0 4.265625-3.457032 7.726562-7.726563 7.726562zm0 0"/></g></svg>