<svg height="512pt" viewBox="-19 0 512 512" width="512pt" xmlns="http://www.w3.org/2000/svg"><path d="m452.820312 185.507812c-28.492187-28.496093-74.691406-28.496093-103.1875 0l-33.8125 33.808594v-69.261718c0-82.871094-67.179687-150.054688-150.050781-150.054688-82.875 0-150.054687 67.183594-150.054687 150.054688v244.109374l273.472656 58.164063 163.632812-163.632813c28.496094-28.496093 28.496094-74.695312 0-103.1875zm0 0" fill="#ef5361"/><path d="m462.019531 196.734375c-28.34375-18.875-66.976562-15.816406-91.988281 9.183594l-25.351562 25.359375c-10.652344 10.652344-28.871094 3.109375-28.871094-11.957032l33.816406-33.816406c28.488281-28.488281 74.691406-28.488281 103.191406 0 3.496094 3.496094 6.5625 7.265625 9.203125 11.230469zm0 0" fill="#dc4250"/><path d="m185.921875 1.339844c-33.378906 4.480468-63.289063 19.933594-85.957031 42.613281-27.160156 27.15625-43.953125 64.660156-43.953125 106.097656v252.6875l-40.308594-8.574219v-244.113281c0-41.4375 16.792969-78.941406 43.953125-106.097656 27.160156-27.160156 64.671875-43.953125 106.109375-43.953125 6.839844 0 13.558594.460938 20.15625 1.339844zm0 0" fill="#dc4250"/><path d="m369.820312 426.136719v53.878906c0 17.660156-14.3125 31.984375-31.972656 31.984375h-305.863281c-17.660156 0-31.984375-14.324219-31.984375-31.984375v-53.878906c0-17.660157 14.324219-31.972657 31.984375-31.972657h305.863281c17.660156 0 31.972656 14.3125 31.972656 31.972657zm0 0" fill="#beccd3"/><g fill="#dae6ed"><path d="m369.820312 426.136719v53.878906c0 17.660156-14.3125 31.984375-31.972656 31.984375h-247.753906c-17.664062 0-31.988281-14.324219-31.988281-31.984375v-53.878906c0-17.660157 14.324219-31.972657 31.988281-31.972657h247.753906c17.660156 0 31.972656 14.3125 31.972656 31.972657zm0 0"/><path d="m238.054688 247.90625 26.851562-26.851562c3.066406-3.066407 3.066406-8.039063 0-11.105469-3.066406-3.066407-8.039062-3.066407-11.105469 0l-30.105469 30.109375h-20.65625c-.800781-3.335938-2.125-6.570313-3.957031-9.578125l16.902344-16.902344c3.066406-3.066406 3.066406-8.039063 0-11.105469s-8.039063-3.066406-11.105469 0l-16.890625 16.894532c-2.972656-1.820313-6.199219-3.160157-9.585937-3.972657v-20.640625l30.101562-30.101562c3.066406-3.066406 3.066406-8.039063 0-11.105469s-8.039062-3.066406-11.105468 0l-26.851563 26.851563-26.855469-26.851563c-3.066406-3.066406-8.039062-3.066406-11.105468 0-3.066407 3.066406-3.066407 8.039063 0 11.101563l30.109374 30.109374v20.636719c-3.390624.8125-6.617187 2.148438-9.585937 3.96875l-16.894531-16.890625c-3.0625-3.066406-8.035156-3.066406-11.101563 0-3.066406 3.066406-3.066406 8.039063 0 11.105469l16.898438 16.898437c-1.835938 3.007813-3.160157 6.242188-3.960938 9.578126h-20.652343l-30.109376-30.105469c-3.066406-3.066407-8.039062-3.066407-11.105468 0-3.066406 3.066406-3.066406 8.039062 0 11.101562l26.855468 26.855469-26.855468 26.851562c-3.066406 3.066407-3.066406 8.039063 0 11.105469 1.535156 1.53125 3.542968 2.296875 5.554687 2.296875 2.007813 0 4.019531-.765625 5.550781-2.296875l30.101563-30.101562h20.660156c.800781 3.335937 2.128907 6.566406 3.964844 9.574219l-16.902344 16.902343c-3.066406 3.066407-3.066406 8.039063 0 11.105469 1.53125 1.53125 3.542969 2.300781 5.550781 2.300781 2.007813 0 4.019532-.765625 5.550782-2.300781l16.898437-16.894531c2.964844 1.816406 6.191407 3.152343 9.574219 3.964843l.007812 20.640626-30.109374 30.105468c-3.066407 3.066406-3.066407 8.039063 0 11.105469 3.066406 3.066406 8.039062 3.066406 11.105468 0l26.851563-26.855469 26.855469 26.855469c1.53125 1.53125 3.542968 2.296875 5.550781 2.296875 2.007812 0 4.019531-.765625 5.550781-2.296875 3.066406-3.066406 3.066406-8.039063 0-11.105469l-30.101562-30.101562-.003907-20.644532c3.386719-.808593 6.617188-2.148437 9.585938-3.96875l16.898437 16.898438c1.53125 1.535156 3.542969 2.300781 5.550782 2.300781 2.011718 0 4.019531-.765625 5.554687-2.300781 3.066406-3.066406 3.066406-8.039062 0-11.105469l-16.90625-16.90625c1.832031-3.003906 3.15625-6.234375 3.957031-9.570312h20.664063l30.101562 30.101562c1.53125 1.53125 3.542969 2.300781 5.550781 2.300781 2.011719 0 4.019532-.765624 5.554688-2.300781 3.066406-3.066406 3.066406-8.039062 0-11.105469zm-54.972657 12.539062c0 .003907 0 .003907-.003906.003907-3.347656 3.347656-7.800781 5.191406-12.535156 5.191406-4.71875 0-9.15625-1.835937-12.5-5.160156-.011719-.011719-.023438-.023438-.03125-.035157-.011719-.011718-.023438-.019531-.035157-.03125-6.882812-6.917968-6.875-18.144531.027344-25.046874 3.351563-3.351563 7.804688-5.195313 12.542969-5.195313 4.71875 0 9.15625 1.835937 12.503906 5.160156.011719.015625.019531.027344.035157.042969.011718.011719.023437.019531.035156.03125 6.875 6.917969 6.867187 18.132812-.03125 25.035156 0 0-.003906 0-.007813.003906zm0 0"/></g></svg>